<?xml version="1.0" standalone="no"?>
<!DOCTYPE svg PUBLIC "-//W3C//DTD SVG 20010904//EN"
 "http://www.w3.org/TR/2001/REC-SVG-20010904/DTD/svg10.dtd">
<svg version="1.0" xmlns="http://www.w3.org/2000/svg"
 width="225.000000pt" height="225.000000pt" viewBox="0 0 225.000000 225.000000"
 preserveAspectRatio="xMidYMid meet">

<g transform="translate(0.000000,225.000000) scale(0.100000,-0.100000)"
fill="#000000" stroke="none">
<path d="M0 1125 l0 -1125 1125 0 1125 0 0 1125 0 1125 -1125 0 -1125 0 0
-1125z m501 726 l29 -30 -2 -700 -3 -700 -22 -22 c-29 -29 -77 -29 -106 0
l-22 22 -3 700 -2 700 29 30 c16 16 39 29 51 29 12 0 35 -13 51 -29z m450 0
l29 -30 -2 -700 -3 -700 -22 -22 c-13 -14 -34 -22 -53 -22 -19 0 -40 8 -53 22
l-22 22 -3 700 -2 700 29 30 c16 16 39 29 51 29 12 0 35 -13 51 -29z m659
-113 c124 -71 234 -138 245 -149 20 -19 20 -33 20 -594 l0 -574 -23 -23 c-22
-23 -26 -23 -277 -23 -251 0 -255 0 -277 23 l-23 23 -2 692 c-2 542 0 697 10
717 15 30 55 52 82 44 11 -4 121 -65 245 -136z"/>
<path d="M1430 1095 l0 -565 145 0 145 0 0 484 0 484 -139 81 c-77 45 -142 81
-145 81 -3 0 -6 -254 -6 -565z"/>
</g>
</svg>
