<?xml version="1.0" encoding="iso-8859-1"?>
<!-- Uploaded to: SVG Repo, www.svgrepo.com, Generator: SVG Repo Mixer Tools -->
<svg fill="#000000" height="800px" width="800px" version="1.1" id="Layer_1" xmlns="http://www.w3.org/2000/svg" xmlns:xlink="http://www.w3.org/1999/xlink" 
	 viewBox="0 0 512.018 512.018" xml:space="preserve">
<g>
	<g>
		<path d="M478.723,33.289c-44.359-44.385-116.323-44.385-160.709,0c-24.734,24.758-36.272,58.916-32.52,92.842L5.677,428.734
			c-7.779,8.412-7.524,21.467,0.578,29.569l47.467,47.467c8.102,8.102,21.156,8.357,29.569,0.578l302.611-279.824
			c33.934,3.763,68.07-7.775,92.821-32.526C523.107,149.613,523.107,77.673,478.723,33.289z M69.385,461.093l-18.454-18.454
			l259.181-280.287l19.787,19.787l19.773,19.773L69.385,461.093z M448.553,163.828c-15.02,15.02-35.523,22.237-56.155,20.47
			l-64.678-64.678c-1.752-20.629,5.47-41.151,20.472-56.168c27.714-27.714,72.656-27.714,100.357,0.003
			C476.275,91.181,476.275,136.105,448.553,163.828z"/>
	</g>
</g>
</svg>