<?xml version="1.0" standalone="no"?>
<!DOCTYPE svg PUBLIC "-//W3C//DTD SVG 20010904//EN"
 "http://www.w3.org/TR/2001/REC-SVG-20010904/DTD/svg10.dtd">
<svg version="1.0" xmlns="http://www.w3.org/2000/svg"
 width="512.000000pt" height="512.000000pt" viewBox="0 0 512.000000 512.000000"
 preserveAspectRatio="xMidYMid meet">

<g transform="translate(0.000000,512.000000) scale(0.100000,-0.100000)"
fill="#000000" stroke="none">
<path d="M1318 4214 l-28 -15 0 -1565 0 -1565 36 -15 c21 -9 48 -13 64 -9 16
3 438 330 976 754 l949 748 5 -731 c4 -568 8 -736 18 -753 26 -46 59 -53 237
-53 129 0 173 3 195 15 64 33 60 -76 60 1590 0 1666 4 1557 -60 1590 -22 12
-66 15 -195 15 -178 0 -211 -7 -237 -53 -10 -17 -14 -181 -18 -733 l-5 -710
-930 734 c-511 404 -943 743 -960 753 -36 23 -70 24 -107 3z"/>
</g>
</svg>
