<?xml version="1.0" encoding="iso-8859-1"?>
<!-- Uploaded to: SVG Repo, www.svgrepo.com, Generator: SVG Repo Mixer Tools -->
<svg fill="#000000" height="800px" width="800px" version="1.1" id="Layer_1" xmlns="http://www.w3.org/2000/svg" xmlns:xlink="http://www.w3.org/1999/xlink" 
	 viewBox="0 0 512 512" xml:space="preserve">
<g>
	<g>
		<path d="M392.533,34.133H119.467C53.76,34.133,0,87.893,0,153.6v153.6c0,65.707,53.76,119.467,119.467,119.467H179.2
			c18.773,0,34.133-15.36,34.133-34.133c0-18.773-15.36-34.133-34.133-34.133H128c-33.28,0-59.733-26.453-59.733-59.733V162.133
			c0-33.28,26.453-59.733,59.733-59.733h256c33.28,0,59.733,26.453,59.733,59.733v136.533c0,33.28-26.453,59.733-59.733,59.733
			h-17.067v-42.667c0-3.413-2.56-5.973-5.12-7.68s-5.973-0.853-8.533,0.853l-102.4,76.8c-2.56,1.707-3.413,4.267-3.413,6.827
			s0.853,5.12,3.413,6.827l102.4,76.8c1.707,0.853,3.413,1.707,5.12,1.707s2.56,0,3.413-0.853c3.413-1.707,5.12-4.267,5.12-7.68
			v-42.667h25.6C458.24,426.667,512,372.907,512,307.2V153.6C512,87.893,458.24,34.133,392.533,34.133z M494.933,307.2
			c0,56.32-46.08,102.4-102.4,102.4H358.4c-5.12,0-8.533,3.413-8.533,8.533v34.133l-79.36-59.733l79.36-59.733v34.133
			c0,5.12,3.413,8.533,8.533,8.533H384c42.667,0,76.8-34.133,76.8-76.8V162.133c0-42.667-34.133-76.8-76.8-76.8H128
			c-42.667,0-76.8,34.133-76.8,76.8v136.533c0,42.667,34.133,76.8,76.8,76.8h51.2c9.387,0,17.067,7.68,17.067,17.067
			S188.587,409.6,179.2,409.6h-59.733c-56.32,0-102.4-46.08-102.4-102.4V153.6c0-56.32,46.08-102.4,102.4-102.4h273.067
			c56.32,0,102.4,46.08,102.4,102.4V307.2z"/>
	</g>
</g>
</svg>